<svg version="1" xmlns="http://www.w3.org/2000/svg" width="589.333" height="589.333" viewBox="0 0 442.000000 442.000000"><path d="M203.9 10.3C118 59.7 32.1 109.9 30.2 111.7l-2.2 2.2v217.6l4.3 2.7c2.3 1.4 8.9 5.2 14.7 8.4 15.1 8.3 40.5 22.4 101.5 56.4 40.8 22.8 75.7 42 76 42 .2 0 16.9-9.5 37.2-21.2 20.2-11.6 41.3-23.7 46.8-26.8 35.1-19.9 102.3-58.7 103.7-59.9 1.7-1.5 1.8-7.6 1.8-110.4V113.9l-2.2-2.2c-1.3-1.2-36-21.8-77.3-45.7C223.6 1.8 223.9 2 221 2c-1.4 0-8.9 3.6-17.1 8.3zm42.2 57.3c13.5 1.6 25.1 4.8 37.7 10.2 49.4 21.3 90 71 98.7 120.6 3.3 19.1 1.5 46.8-4.2 65.1-3 9.6-8.2 20.1-9.2 18.9-.4-.5-1.3-4.1-2-8-2.8-16.1-15.6-48.9-25.7-65.7-10.5-17.3-26.1-34.7-38.4-42.8-17.9-11.8-35.8-16.6-65-17.6-25.9-.8-49.1 3.1-61.7 10.3-4.9 2.8-5.3 2.9-5.3 1 0-.8 5.4-21.6 12-46.2s12-44.8 12-45c0-.4 10.1-2.4 14.5-2.8 6.3-.5 23.9.4 36.6 2zM170 74.9c0 .4-3.7 4.9-8.2 9.9-14.7 16.5-25.9 33.7-33.2 51.4-11.7 28.2-10.7 55.6 3.2 86.1 9.2 20.1 29.5 42.7 46.6 51.7 2.8 1.5 4.5 3.1 4.4 4-.2 1.1-12.1 4.1-44.9 11.4l-44.7 10-2.5-3c-3.8-4.2-12-20.6-15.5-30.4-10.7-30.7-10.8-71.6-.1-104.2 12.9-39.7 43.1-71.2 80.2-83.9 11.3-3.9 14.7-4.6 14.7-3zm157.6 189.4c17 19.7 31 36.5 31.2 37.3.5 2.1-4.8 10.8-12.1 19.9-18.6 23.2-43.5 40-70.9 47.9-35 10.1-74.6 6.4-118.1-11.2-17.2-7-27.4-13.1-37-22.1-9.7-9.1-18.8-21.3-17.3-22.9.4-.3 3.7 1.1 7.4 3.1s11.8 5.6 17.9 8.1c38.4 15.4 74.8 18.3 102.2 8 15-5.6 30.6-18.1 39.9-32.1 12-17.8 20.7-42.8 22.8-65.2.5-4.9 1.1-7.1 1.9-6.9.7.2 15.2 16.4 32.1 36.1z"/></svg>